<mxfile host="app.diagrams.net" modified="2024-04-08T20:33:42.464Z" agent="Mozilla/5.0 (Windows NT 10.0; Win64; x64) AppleWebKit/537.36 (KHTML, like Gecko) Chrome/121.0.0.0 Safari/537.36 OPR/107.0.0.0" etag="S9GDjk2YDo_0WoHj1oPj" version="24.2.2" type="github">
  <diagram name="PÃ¡gina-1" id="2l_Ldzb5v3pvQE8i6oqE">
    <mxGraphModel dx="733" dy="524" grid="1" gridSize="10" guides="1" tooltips="1" connect="1" arrows="1" fold="1" page="1" pageScale="1" pageWidth="3300" pageHeight="4681" math="0" shadow="0">
      <root>
        <mxCell id="0" />
        <mxCell id="1" parent="0" />
        <mxCell id="-s6CalOqR5dvN9wePT47-33" value="cargo" style="whiteSpace=wrap;html=1;align=center;" vertex="1" parent="1">
          <mxGeometry x="2180" y="1620" width="100" height="40" as="geometry" />
        </mxCell>
        <mxCell id="-s6CalOqR5dvN9wePT47-34" value="AFP" style="whiteSpace=wrap;html=1;align=center;" vertex="1" parent="1">
          <mxGeometry x="1850" y="1430" width="100" height="40" as="geometry" />
        </mxCell>
        <mxCell id="-s6CalOqR5dvN9wePT47-35" value="trabajador" style="whiteSpace=wrap;html=1;align=center;" vertex="1" parent="1">
          <mxGeometry x="1850" y="1620" width="100" height="40" as="geometry" />
        </mxCell>
        <mxCell id="-s6CalOqR5dvN9wePT47-37" value="Relationship" style="shape=rhombus;perimeter=rhombusPerimeter;whiteSpace=wrap;html=1;align=center;" vertex="1" parent="1">
          <mxGeometry x="1670" y="1610" width="120" height="60" as="geometry" />
        </mxCell>
        <mxCell id="-s6CalOqR5dvN9wePT47-38" value="Relationship" style="shape=rhombus;perimeter=rhombusPerimeter;whiteSpace=wrap;html=1;align=center;" vertex="1" parent="1">
          <mxGeometry x="2000" y="1610" width="120" height="60" as="geometry" />
        </mxCell>
        <mxCell id="-s6CalOqR5dvN9wePT47-39" value="Relationship" style="shape=rhombus;perimeter=rhombusPerimeter;whiteSpace=wrap;html=1;align=center;" vertex="1" parent="1">
          <mxGeometry x="1840" y="1520" width="120" height="60" as="geometry" />
        </mxCell>
        <mxCell id="-s6CalOqR5dvN9wePT47-40" value="" style="endArrow=none;html=1;rounded=0;exitX=1;exitY=0.5;exitDx=0;exitDy=0;entryX=0;entryY=0.5;entryDx=0;entryDy=0;" edge="1" parent="1" source="-s6CalOqR5dvN9wePT47-37" target="-s6CalOqR5dvN9wePT47-35">
          <mxGeometry relative="1" as="geometry">
            <mxPoint x="1830" y="1670" as="sourcePoint" />
            <mxPoint x="1880" y="1660" as="targetPoint" />
          </mxGeometry>
        </mxCell>
        <mxCell id="-s6CalOqR5dvN9wePT47-41" value="" style="endArrow=none;html=1;rounded=0;entryX=0;entryY=0.5;entryDx=0;entryDy=0;" edge="1" parent="1" source="-s6CalOqR5dvN9wePT47-35" target="-s6CalOqR5dvN9wePT47-38">
          <mxGeometry relative="1" as="geometry">
            <mxPoint x="1800" y="1650" as="sourcePoint" />
            <mxPoint x="1860" y="1650" as="targetPoint" />
            <Array as="points" />
          </mxGeometry>
        </mxCell>
        <mxCell id="-s6CalOqR5dvN9wePT47-43" value="" style="endArrow=none;html=1;rounded=0;exitX=1;exitY=0.5;exitDx=0;exitDy=0;entryX=0;entryY=0.5;entryDx=0;entryDy=0;" edge="1" parent="1" source="-s6CalOqR5dvN9wePT47-38" target="-s6CalOqR5dvN9wePT47-33">
          <mxGeometry relative="1" as="geometry">
            <mxPoint x="2180" y="1630" as="sourcePoint" />
            <mxPoint x="2250" y="1630" as="targetPoint" />
            <Array as="points" />
          </mxGeometry>
        </mxCell>
        <mxCell id="-s6CalOqR5dvN9wePT47-44" value="" style="endArrow=none;html=1;rounded=0;exitX=1;exitY=0.5;exitDx=0;exitDy=0;entryX=0;entryY=0.5;entryDx=0;entryDy=0;" edge="1" parent="1" source="-s6CalOqR5dvN9wePT47-36" target="-s6CalOqR5dvN9wePT47-37">
          <mxGeometry relative="1" as="geometry">
            <mxPoint x="1530" y="1639.72" as="sourcePoint" />
            <mxPoint x="1640" y="1639.72" as="targetPoint" />
          </mxGeometry>
        </mxCell>
        <mxCell id="-s6CalOqR5dvN9wePT47-45" value="" style="endArrow=none;html=1;rounded=0;exitX=0.5;exitY=1;exitDx=0;exitDy=0;entryX=0.5;entryY=0;entryDx=0;entryDy=0;" edge="1" parent="1" source="-s6CalOqR5dvN9wePT47-39" target="-s6CalOqR5dvN9wePT47-35">
          <mxGeometry relative="1" as="geometry">
            <mxPoint x="1860" y="1609.44" as="sourcePoint" />
            <mxPoint x="1970" y="1609.44" as="targetPoint" />
            <Array as="points">
              <mxPoint x="1900" y="1600" />
            </Array>
          </mxGeometry>
        </mxCell>
        <mxCell id="-s6CalOqR5dvN9wePT47-46" value="" style="endArrow=none;html=1;rounded=0;exitX=0.5;exitY=1;exitDx=0;exitDy=0;entryX=0.5;entryY=0;entryDx=0;entryDy=0;" edge="1" parent="1" source="-s6CalOqR5dvN9wePT47-34" target="-s6CalOqR5dvN9wePT47-39">
          <mxGeometry relative="1" as="geometry">
            <mxPoint x="1910" y="1590" as="sourcePoint" />
            <mxPoint x="1910" y="1630" as="targetPoint" />
            <Array as="points" />
          </mxGeometry>
        </mxCell>
        <mxCell id="-s6CalOqR5dvN9wePT47-47" value="" style="endArrow=none;html=1;rounded=0;exitX=1;exitY=0.5;exitDx=0;exitDy=0;entryX=0;entryY=0.5;entryDx=0;entryDy=0;" edge="1" parent="1" target="-s6CalOqR5dvN9wePT47-36">
          <mxGeometry relative="1" as="geometry">
            <mxPoint x="1530" y="1639.72" as="sourcePoint" />
            <mxPoint x="1620" y="1640" as="targetPoint" />
          </mxGeometry>
        </mxCell>
        <mxCell id="-s6CalOqR5dvN9wePT47-36" value="salud" style="whiteSpace=wrap;html=1;align=center;" vertex="1" parent="1">
          <mxGeometry x="1530" y="1620" width="100" height="40" as="geometry" />
        </mxCell>
        <mxCell id="-s6CalOqR5dvN9wePT47-53" style="edgeStyle=orthogonalEdgeStyle;rounded=0;orthogonalLoop=1;jettySize=auto;html=1;exitX=1;exitY=0;exitDx=0;exitDy=0;entryX=0;entryY=1;entryDx=0;entryDy=0;endArrow=none;endFill=0;" edge="1" parent="1" source="-s6CalOqR5dvN9wePT47-50" target="-s6CalOqR5dvN9wePT47-35">
          <mxGeometry relative="1" as="geometry" />
        </mxCell>
        <mxCell id="-s6CalOqR5dvN9wePT47-50" value="PK_RUT" style="ellipse;whiteSpace=wrap;html=1;align=center;" vertex="1" parent="1">
          <mxGeometry x="1750" y="1740" width="100" height="40" as="geometry" />
        </mxCell>
        <mxCell id="-s6CalOqR5dvN9wePT47-54" style="edgeStyle=orthogonalEdgeStyle;rounded=0;orthogonalLoop=1;jettySize=auto;html=1;exitX=0.5;exitY=0;exitDx=0;exitDy=0;entryX=0.5;entryY=1;entryDx=0;entryDy=0;endArrow=none;endFill=0;" edge="1" parent="1" source="-s6CalOqR5dvN9wePT47-51" target="-s6CalOqR5dvN9wePT47-35">
          <mxGeometry relative="1" as="geometry" />
        </mxCell>
        <mxCell id="-s6CalOqR5dvN9wePT47-51" value="NOMBRE" style="ellipse;whiteSpace=wrap;html=1;align=center;" vertex="1" parent="1">
          <mxGeometry x="1850" y="1740" width="100" height="40" as="geometry" />
        </mxCell>
        <mxCell id="-s6CalOqR5dvN9wePT47-55" style="edgeStyle=orthogonalEdgeStyle;rounded=0;orthogonalLoop=1;jettySize=auto;html=1;exitX=0;exitY=0;exitDx=0;exitDy=0;entryX=1;entryY=1;entryDx=0;entryDy=0;endArrow=none;endFill=0;" edge="1" parent="1" source="-s6CalOqR5dvN9wePT47-52" target="-s6CalOqR5dvN9wePT47-35">
          <mxGeometry relative="1" as="geometry" />
        </mxCell>
        <mxCell id="-s6CalOqR5dvN9wePT47-52" value="APELLIDO" style="ellipse;whiteSpace=wrap;html=1;align=center;" vertex="1" parent="1">
          <mxGeometry x="1950" y="1740" width="100" height="40" as="geometry" />
        </mxCell>
        <mxCell id="-s6CalOqR5dvN9wePT47-61" style="edgeStyle=orthogonalEdgeStyle;rounded=0;orthogonalLoop=1;jettySize=auto;html=1;exitX=0;exitY=1;exitDx=0;exitDy=0;entryX=1;entryY=0;entryDx=0;entryDy=0;endArrow=none;endFill=0;" edge="1" parent="1" source="-s6CalOqR5dvN9wePT47-56" target="-s6CalOqR5dvN9wePT47-34">
          <mxGeometry relative="1" as="geometry" />
        </mxCell>
        <mxCell id="-s6CalOqR5dvN9wePT47-56" value="CAPITAL" style="ellipse;whiteSpace=wrap;html=1;align=center;fontStyle=4;" vertex="1" parent="1">
          <mxGeometry x="2010" y="1350" width="100" height="40" as="geometry" />
        </mxCell>
        <mxCell id="-s6CalOqR5dvN9wePT47-60" style="edgeStyle=orthogonalEdgeStyle;rounded=0;orthogonalLoop=1;jettySize=auto;html=1;exitX=0.5;exitY=1;exitDx=0;exitDy=0;endArrow=none;endFill=0;" edge="1" parent="1" source="-s6CalOqR5dvN9wePT47-57" target="-s6CalOqR5dvN9wePT47-34">
          <mxGeometry relative="1" as="geometry" />
        </mxCell>
        <mxCell id="-s6CalOqR5dvN9wePT47-57" value="MODELO" style="ellipse;whiteSpace=wrap;html=1;align=center;fontStyle=4;" vertex="1" parent="1">
          <mxGeometry x="1850" y="1290" width="100" height="40" as="geometry" />
        </mxCell>
        <mxCell id="-s6CalOqR5dvN9wePT47-59" style="edgeStyle=orthogonalEdgeStyle;rounded=0;orthogonalLoop=1;jettySize=auto;html=1;exitX=1;exitY=1;exitDx=0;exitDy=0;entryX=0;entryY=0;entryDx=0;entryDy=0;endArrow=none;endFill=0;" edge="1" parent="1" source="-s6CalOqR5dvN9wePT47-58" target="-s6CalOqR5dvN9wePT47-34">
          <mxGeometry relative="1" as="geometry" />
        </mxCell>
        <mxCell id="-s6CalOqR5dvN9wePT47-58" value="HABITAT" style="ellipse;whiteSpace=wrap;html=1;align=center;fontStyle=4;" vertex="1" parent="1">
          <mxGeometry x="1680" y="1350" width="100" height="40" as="geometry" />
        </mxCell>
        <mxCell id="-s6CalOqR5dvN9wePT47-70" style="edgeStyle=orthogonalEdgeStyle;rounded=0;orthogonalLoop=1;jettySize=auto;html=1;exitX=0;exitY=0.5;exitDx=0;exitDy=0;entryX=1;entryY=0;entryDx=0;entryDy=0;strokeColor=default;align=center;verticalAlign=middle;fontFamily=Helvetica;fontSize=11;fontColor=default;labelBackgroundColor=default;endArrow=none;endFill=0;" edge="1" parent="1" source="-s6CalOqR5dvN9wePT47-62" target="-s6CalOqR5dvN9wePT47-33">
          <mxGeometry relative="1" as="geometry" />
        </mxCell>
        <mxCell id="-s6CalOqR5dvN9wePT47-62" value="administrador" style="ellipse;whiteSpace=wrap;html=1;align=center;" vertex="1" parent="1">
          <mxGeometry x="2330" y="1520" width="100" height="40" as="geometry" />
        </mxCell>
        <mxCell id="-s6CalOqR5dvN9wePT47-66" style="edgeStyle=orthogonalEdgeStyle;rounded=0;orthogonalLoop=1;jettySize=auto;html=1;exitX=1;exitY=0.5;exitDx=0;exitDy=0;entryX=0;entryY=0;entryDx=0;entryDy=0;endArrow=none;endFill=0;" edge="1" parent="1" source="-s6CalOqR5dvN9wePT47-63" target="-s6CalOqR5dvN9wePT47-36">
          <mxGeometry relative="1" as="geometry" />
        </mxCell>
        <mxCell id="-s6CalOqR5dvN9wePT47-63" value="FONASA" style="ellipse;whiteSpace=wrap;html=1;align=center;" vertex="1" parent="1">
          <mxGeometry x="1350" y="1530" width="100" height="40" as="geometry" />
        </mxCell>
        <mxCell id="-s6CalOqR5dvN9wePT47-65" style="edgeStyle=orthogonalEdgeStyle;rounded=0;orthogonalLoop=1;jettySize=auto;html=1;exitX=1;exitY=0.5;exitDx=0;exitDy=0;entryX=0;entryY=1;entryDx=0;entryDy=0;strokeColor=default;align=center;verticalAlign=middle;fontFamily=Helvetica;fontSize=11;fontColor=default;labelBackgroundColor=default;endArrow=none;endFill=0;" edge="1" parent="1" source="-s6CalOqR5dvN9wePT47-64" target="-s6CalOqR5dvN9wePT47-36">
          <mxGeometry relative="1" as="geometry" />
        </mxCell>
        <mxCell id="-s6CalOqR5dvN9wePT47-64" value="ISAPRE" style="ellipse;whiteSpace=wrap;html=1;align=center;" vertex="1" parent="1">
          <mxGeometry x="1350" y="1700" width="100" height="40" as="geometry" />
        </mxCell>
        <mxCell id="-s6CalOqR5dvN9wePT47-68" style="edgeStyle=orthogonalEdgeStyle;rounded=0;orthogonalLoop=1;jettySize=auto;html=1;exitX=0;exitY=0.5;exitDx=0;exitDy=0;entryX=1;entryY=1;entryDx=0;entryDy=0;strokeColor=default;align=center;verticalAlign=middle;fontFamily=Helvetica;fontSize=11;fontColor=default;labelBackgroundColor=default;endArrow=none;endFill=0;" edge="1" parent="1" source="-s6CalOqR5dvN9wePT47-67" target="-s6CalOqR5dvN9wePT47-33">
          <mxGeometry relative="1" as="geometry" />
        </mxCell>
        <mxCell id="-s6CalOqR5dvN9wePT47-67" value="vendedor" style="ellipse;whiteSpace=wrap;html=1;align=center;" vertex="1" parent="1">
          <mxGeometry x="2330" y="1730" width="100" height="40" as="geometry" />
        </mxCell>
        <mxCell id="-s6CalOqR5dvN9wePT47-75" value="1" style="text;strokeColor=none;fillColor=none;spacingLeft=4;spacingRight=4;overflow=hidden;rotatable=0;points=[[0,0.5],[1,0.5]];portConstraint=eastwest;fontSize=12;whiteSpace=wrap;html=1;" vertex="1" parent="1">
          <mxGeometry x="1950" y="1620" width="20" height="20" as="geometry" />
        </mxCell>
        <mxCell id="-s6CalOqR5dvN9wePT47-77" value="" style="endArrow=none;html=1;rounded=0;exitX=1;exitY=0.5;exitDx=0;exitDy=0;entryX=0;entryY=0.5;entryDx=0;entryDy=0;" edge="1" parent="1" source="-s6CalOqR5dvN9wePT47-35" target="-s6CalOqR5dvN9wePT47-78">
          <mxGeometry relative="1" as="geometry">
            <mxPoint x="1950" y="1640" as="sourcePoint" />
            <mxPoint x="2000" y="1640" as="targetPoint" />
            <Array as="points" />
          </mxGeometry>
        </mxCell>
        <mxCell id="-s6CalOqR5dvN9wePT47-78" value="n" style="text;strokeColor=none;fillColor=none;spacingLeft=4;spacingRight=4;overflow=hidden;rotatable=0;points=[[0,0.5],[1,0.5]];portConstraint=eastwest;fontSize=12;whiteSpace=wrap;html=1;" vertex="1" parent="1">
          <mxGeometry x="1950" y="1640" width="20" height="20" as="geometry" />
        </mxCell>
        <mxCell id="-s6CalOqR5dvN9wePT47-79" style="edgeStyle=orthogonalEdgeStyle;rounded=0;orthogonalLoop=1;jettySize=auto;html=1;exitX=1;exitY=0.5;exitDx=0;exitDy=0;" edge="1" parent="1" source="-s6CalOqR5dvN9wePT47-78" target="-s6CalOqR5dvN9wePT47-78">
          <mxGeometry relative="1" as="geometry" />
        </mxCell>
        <mxCell id="-s6CalOqR5dvN9wePT47-80" value="1" style="text;strokeColor=none;fillColor=none;spacingLeft=4;spacingRight=4;overflow=hidden;rotatable=0;points=[[0,0.5],[1,0.5]];portConstraint=eastwest;fontSize=12;whiteSpace=wrap;html=1;" vertex="1" parent="1">
          <mxGeometry x="2160" y="1620" width="20" height="20" as="geometry" />
        </mxCell>
        <mxCell id="-s6CalOqR5dvN9wePT47-81" value="1" style="text;strokeColor=none;fillColor=none;spacingLeft=4;spacingRight=4;overflow=hidden;rotatable=0;points=[[0,0.5],[1,0.5]];portConstraint=eastwest;fontSize=12;whiteSpace=wrap;html=1;" vertex="1" parent="1">
          <mxGeometry x="2160" y="1640" width="20" height="20" as="geometry" />
        </mxCell>
        <mxCell id="-s6CalOqR5dvN9wePT47-82" value="1" style="text;strokeColor=none;fillColor=none;spacingLeft=4;spacingRight=4;overflow=hidden;rotatable=0;points=[[0,0.5],[1,0.5]];portConstraint=eastwest;fontSize=12;whiteSpace=wrap;html=1;" vertex="1" parent="1">
          <mxGeometry x="1880" y="1600" width="20" height="20" as="geometry" />
        </mxCell>
        <mxCell id="-s6CalOqR5dvN9wePT47-84" value="n" style="text;strokeColor=none;fillColor=none;spacingLeft=4;spacingRight=4;overflow=hidden;rotatable=0;points=[[0,0.5],[1,0.5]];portConstraint=eastwest;fontSize=12;whiteSpace=wrap;html=1;" vertex="1" parent="1">
          <mxGeometry x="1900" y="1600" width="20" height="20" as="geometry" />
        </mxCell>
        <mxCell id="-s6CalOqR5dvN9wePT47-85" value="1" style="text;strokeColor=none;fillColor=none;spacingLeft=4;spacingRight=4;overflow=hidden;rotatable=0;points=[[0,0.5],[1,0.5]];portConstraint=eastwest;fontSize=12;whiteSpace=wrap;html=1;" vertex="1" parent="1">
          <mxGeometry x="1900" y="1470" width="20" height="20" as="geometry" />
        </mxCell>
        <mxCell id="-s6CalOqR5dvN9wePT47-86" value="n" style="text;strokeColor=none;fillColor=none;spacingLeft=4;spacingRight=4;overflow=hidden;rotatable=0;points=[[0,0.5],[1,0.5]];portConstraint=eastwest;fontSize=12;whiteSpace=wrap;html=1;" vertex="1" parent="1">
          <mxGeometry x="1880" y="1470" width="20" height="20" as="geometry" />
        </mxCell>
        <mxCell id="-s6CalOqR5dvN9wePT47-87" value="1" style="text;strokeColor=none;fillColor=none;spacingLeft=4;spacingRight=4;overflow=hidden;rotatable=0;points=[[0,0.5],[1,0.5]];portConstraint=eastwest;fontSize=12;whiteSpace=wrap;html=1;" vertex="1" parent="1">
          <mxGeometry x="1830" y="1620" width="20" height="20" as="geometry" />
        </mxCell>
        <mxCell id="-s6CalOqR5dvN9wePT47-88" value="n" style="text;strokeColor=none;fillColor=none;spacingLeft=4;spacingRight=4;overflow=hidden;rotatable=0;points=[[0,0.5],[1,0.5]];portConstraint=eastwest;fontSize=12;whiteSpace=wrap;html=1;" vertex="1" parent="1">
          <mxGeometry x="1830" y="1640" width="20" height="20" as="geometry" />
        </mxCell>
        <mxCell id="-s6CalOqR5dvN9wePT47-89" value="1" style="text;strokeColor=none;fillColor=none;spacingLeft=4;spacingRight=4;overflow=hidden;rotatable=0;points=[[0,0.5],[1,0.5]];portConstraint=eastwest;fontSize=12;whiteSpace=wrap;html=1;" vertex="1" parent="1">
          <mxGeometry x="1630" y="1620" width="20" height="20" as="geometry" />
        </mxCell>
        <mxCell id="-s6CalOqR5dvN9wePT47-90" value="1" style="text;strokeColor=none;fillColor=none;spacingLeft=4;spacingRight=4;overflow=hidden;rotatable=0;points=[[0,0.5],[1,0.5]];portConstraint=eastwest;fontSize=12;whiteSpace=wrap;html=1;" vertex="1" parent="1">
          <mxGeometry x="1630" y="1640" width="20" height="20" as="geometry" />
        </mxCell>
      </root>
    </mxGraphModel>
  </diagram>
</mxfile>
